<svg version="1.1" xmlns="http://www.w3.org/2000/svg" viewBox="303.53 258.65 418.27 506.17">
<path d="M0 0 C1.13179687 0.59039062 2.26359375 1.18078125 3.4296875 1.7890625 C19.31325329 10.40947349 33.41959003 21.65447772 46.26660156 34.30175781 C47.96885826 35.96948987 49.69568714 37.60755678 51.4296875 39.2421875 C64.51066663 51.72441627 73.95606092 66.43707946 83 82 C83.37785645 82.64437012 83.75571289 83.28874023 84.14501953 83.95263672 C109.20044004 127.10426941 114.85649456 180.42828919 102.4675293 228.27172852 C93.94056073 259.72636703 79.4536613 287.29226413 61 314 C60.57895996 314.61149902 60.15791992 315.22299805 59.72412109 315.85302734 C49.85260779 330.12159813 39.11770166 343.75823438 27.7265625 356.83984375 C25.26610022 359.67048677 22.90664212 362.57195338 20.5625 365.5 C15.96198124 371.17313516 10.9910895 376.46620139 5.99609375 381.7890625 C3.76085267 384.17359485 1.5729972 386.5876206 -0.5625 389.0625 C-5.01852488 394.21750917 -9.67412991 399.19089476 -14.31152344 404.18212891 C-15.46416918 405.42310637 -16.6158189 406.66500952 -17.76660156 407.90771484 C-30.39174196 421.54108924 -30.39174196 421.54108924 -36.83984375 427.77734375 C-38.69269026 429.68379884 -40.42403651 431.63001314 -42.15820312 433.64282227 C-47.92826793 440.25338206 -54.11590784 446.45518412 -60.28540039 452.69042969 C-61.79730222 454.22389075 -63.30291428 455.76357997 -64.80200195 457.30957031 C-86.74709199 479.93178457 -86.74709199 479.93178457 -101.75 480.8125 C-111.38495308 480.69368331 -118.80583815 475.75917385 -125.44218445 469.14994812 C-126.51301018 468.04511833 -126.51301018 468.04511833 -127.60546875 466.91796875 C-128.37377518 466.14495926 -129.1420816 465.37194977 -129.93367004 464.57551575 C-132.36363307 462.12438996 -134.77537919 459.65617188 -137.1875 457.1875 C-138.81594731 455.54252023 -140.44549604 453.89863003 -142.07617188 452.25585938 C-148.37674474 445.88446427 -154.64126498 439.53820438 -160.47956848 432.735672 C-162.7050764 430.19510919 -165.08326576 427.85986991 -167.5 425.5 C-171.28680573 421.76997377 -174.87397309 417.93765921 -178.32421875 413.89453125 C-180.13977378 411.84198069 -182.04759536 409.92253994 -184 408 C-187.21616197 404.82704941 -190.21937652 401.5383532 -193.16796875 398.1171875 C-198.02733622 392.50145793 -203.04653221 387.0259186 -208.09521484 381.58056641 C-212.87130032 376.41933952 -217.40499378 371.13318954 -221.81640625 365.65234375 C-223.99397068 363.00732363 -226.25318763 360.46787475 -228.5625 357.9375 C-232.93569583 353.12097332 -236.99491251 348.12464605 -241 343 C-242.06363929 341.65481918 -243.12745609 340.3097787 -244.19140625 338.96484375 C-252.14239231 328.87333556 -259.72169947 318.58568373 -267 308 C-267.65693848 307.05543945 -267.65693848 307.05543945 -268.32714844 306.09179688 C-287.19401857 278.92693163 -300.68420465 248.55816982 -307 216 C-307.17442627 215.21778076 -307.34885254 214.43556152 -307.52856445 213.62963867 C-309.62967816 203.1278305 -309.43984783 192.47825447 -309.4375 181.8125 C-309.4385675 180.78699036 -309.43963501 179.76148071 -309.44073486 178.70489502 C-309.41692363 162.87537434 -308.38960354 148.28683056 -304 133 C-303.53659446 131.24509914 -303.07434906 129.48989151 -302.61328125 127.734375 C-289.75295322 80.58429965 -256.75408144 35.9137019 -216 9 C-215.43506836 8.62665527 -214.87013672 8.25331055 -214.28808594 7.86865234 C-150.20079712 -33.808308 -67.0576198 -36.04121129 0 0 Z " fill="#FBFBFB" transform="translate(613,284)"/>
<path d="M0 0 C1.13179687 0.59039062 2.26359375 1.18078125 3.4296875 1.7890625 C19.31325329 10.40947349 33.41959003 21.65447772 46.26660156 34.30175781 C47.96885826 35.96948987 49.69568714 37.60755678 51.4296875 39.2421875 C64.51066663 51.72441627 73.95606092 66.43707946 83 82 C83.37785645 82.64437012 83.75571289 83.28874023 84.14501953 83.95263672 C109.20044004 127.10426941 114.85649456 180.42828919 102.4675293 228.27172852 C93.94056073 259.72636703 79.4536613 287.29226413 61 314 C60.57895996 314.61149902 60.15791992 315.22299805 59.72412109 315.85302734 C49.85260779 330.12159813 39.11770166 343.75823438 27.7265625 356.83984375 C25.26610022 359.67048677 22.90664212 362.57195338 20.5625 365.5 C15.96198124 371.17313516 10.9910895 376.46620139 5.99609375 381.7890625 C3.76085267 384.17359485 1.5729972 386.5876206 -0.5625 389.0625 C-5.01852488 394.21750917 -9.67412991 399.19089476 -14.31152344 404.18212891 C-15.46416918 405.42310637 -16.6158189 406.66500952 -17.76660156 407.90771484 C-30.39174196 421.54108924 -30.39174196 421.54108924 -36.83984375 427.77734375 C-38.69269026 429.68379884 -40.42403651 431.63001314 -42.15820312 433.64282227 C-47.92826793 440.25338206 -54.11590784 446.45518412 -60.28540039 452.69042969 C-61.79730222 454.22389075 -63.30291428 455.76357997 -64.80200195 457.30957031 C-86.74709199 479.93178457 -86.74709199 479.93178457 -101.75 480.8125 C-111.38495308 480.69368331 -118.80583815 475.75917385 -125.44218445 469.14994812 C-126.51301018 468.04511833 -126.51301018 468.04511833 -127.60546875 466.91796875 C-128.37377518 466.14495926 -129.1420816 465.37194977 -129.93367004 464.57551575 C-132.36363307 462.12438996 -134.77537919 459.65617188 -137.1875 457.1875 C-138.81594731 455.54252023 -140.44549604 453.89863003 -142.07617188 452.25585938 C-148.37674474 445.88446427 -154.64126498 439.53820438 -160.47956848 432.735672 C-162.7050764 430.19510919 -165.08326576 427.85986991 -167.5 425.5 C-171.28680573 421.76997377 -174.87397309 417.93765921 -178.32421875 413.89453125 C-180.13977378 411.84198069 -182.04759536 409.92253994 -184 408 C-187.21616197 404.82704941 -190.21937652 401.5383532 -193.16796875 398.1171875 C-198.02733622 392.50145793 -203.04653221 387.0259186 -208.09521484 381.58056641 C-212.87130032 376.41933952 -217.40499378 371.13318954 -221.81640625 365.65234375 C-223.99397068 363.00732363 -226.25318763 360.46787475 -228.5625 357.9375 C-232.93569583 353.12097332 -236.99491251 348.12464605 -241 343 C-242.06363929 341.65481918 -243.12745609 340.3097787 -244.19140625 338.96484375 C-252.14239231 328.87333556 -259.72169947 318.58568373 -267 308 C-267.65693848 307.05543945 -267.65693848 307.05543945 -268.32714844 306.09179688 C-287.19401857 278.92693163 -300.68420465 248.55816982 -307 216 C-307.17442627 215.21778076 -307.34885254 214.43556152 -307.52856445 213.62963867 C-309.62967816 203.1278305 -309.43984783 192.47825447 -309.4375 181.8125 C-309.4385675 180.78699036 -309.43963501 179.76148071 -309.44073486 178.70489502 C-309.41692363 162.87537434 -308.38960354 148.28683056 -304 133 C-303.53659446 131.24509914 -303.07434906 129.48989151 -302.61328125 127.734375 C-289.75295322 80.58429965 -256.75408144 35.9137019 -216 9 C-215.43506836 8.62665527 -214.87013672 8.25331055 -214.28808594 7.86865234 C-150.20079712 -33.808308 -67.0576198 -36.04121129 0 0 Z M-177 30 C-178.04583252 30.50853516 -178.04583252 30.50853516 -179.11279297 31.02734375 C-194.58847315 38.65172578 -207.60531323 48.0486139 -220 60 C-221.15048828 61.05574219 -221.15048828 61.05574219 -222.32421875 62.1328125 C-247.81134046 86.2014409 -266.17092928 123.51804049 -271 158 C-271.25366333 159.59932373 -271.25366333 159.59932373 -271.51245117 161.23095703 C-278.70687175 216.84811518 -255.66581617 264.03316647 -222.73266602 306.93310547 C-217.16232371 314.12235454 -211.43829526 321.15697232 -205.51171875 328.0546875 C-203.12468504 330.85379079 -200.80639849 333.69685091 -198.5 336.5625 C-194.37309794 341.63607493 -189.99897442 346.43741142 -185.5546875 351.23046875 C-183.49886278 353.45918393 -181.48383043 355.70767919 -179.5 358 C-175.70702776 362.37650643 -171.77343153 366.62169764 -167.84375 370.875 C-165.72294475 373.18596979 -163.65222961 375.53572399 -161.59375 377.90234375 C-158.13939911 381.86319494 -154.59598596 385.73013996 -151 389.5625 C-150.0409375 390.58633789 -150.0409375 390.58633789 -149.0625 391.63085938 C-143.88413334 397.12781695 -138.58200453 402.49085144 -133.1875 407.77563477 C-130.22581465 410.69393605 -127.39272699 413.65717983 -124.68359375 416.8125 C-120.38943725 421.78733493 -115.73022019 426.37842457 -111.0625 431 C-109.75055664 432.30517578 -109.75055664 432.30517578 -108.41210938 433.63671875 C-106.27702551 435.76013549 -104.13962795 437.88116378 -102 440 C-93.28870105 436.01066874 -86.59058844 427.74567023 -79.9375 421.0625 C-79.07833984 420.20720703 -78.21917969 419.35191406 -77.33398438 418.47070312 C-72.92413734 414.05411836 -68.68196236 409.56736765 -64.61547852 404.83374023 C-62.04612968 401.91725555 -59.2787895 399.21504425 -56.5 396.5 C-52.33439385 392.38656768 -48.33129935 388.22256425 -44.5390625 383.7578125 C-42.9305945 381.92072976 -41.24161132 380.21092213 -39.5 378.5 C-36.46013822 375.50742496 -33.64822626 372.37407946 -30.86328125 369.14453125 C-28.87723372 366.85870296 -26.8484924 364.61642587 -24.8125 362.375 C-20.70541743 357.82315722 -16.70310611 353.19004613 -12.72607422 348.52490234 C-10.07896149 345.42090213 -7.42017825 342.32893134 -4.73046875 339.26171875 C1.94567774 331.64358186 8.38556734 323.90355616 14.55810547 315.87158203 C16.10432146 313.86459053 17.66318101 311.86779638 19.22265625 309.87109375 C26.24140716 300.84345695 32.8852963 291.6649284 39 282 C39.38639648 281.38946777 39.77279297 280.77893555 40.17089844 280.14990234 C65.651242 239.53726757 77.99444974 192.45230154 67.29980469 144.88574219 C59.873513 115.1151867 45.76878403 88.66260203 24.94140625 66.1328125 C23 64 23 64 20.625 60.9375 C-5.49428108 31.70878069 -49.90504239 15.61697354 -88.23681641 13.14941406 C-119.28601318 11.47048595 -148.96279923 16.30789313 -177 30 Z " fill="#2B3339" transform="translate(613,284)"/>
<path d="M0 0 C0.98452148 -0.01245758 1.96904297 -0.02491516 2.98339844 -0.03775024 C4.56169434 -0.010121 4.56169434 -0.010121 6.171875 0.01806641 C7.80817871 0.01657089 7.80817871 0.01657089 9.47753906 0.01504517 C11.78067319 0.0197198 14.08381815 0.03913731 16.38671875 0.07226562 C19.90978454 0.11946692 23.4298232 0.11338385 26.953125 0.10009766 C29.19272636 0.11125161 31.43231498 0.12547164 33.671875 0.14306641 C35.2501709 0.14033218 35.2501709 0.14033218 36.86035156 0.13754272 C44.15700456 0.27883327 44.15700456 0.27883327 48.0625 2.65722656 C51.35142864 6.34949808 51.0702409 9.43309807 51.06904602 14.16462708 C51.07272271 14.93868304 51.0763994 15.71273901 51.0801875 16.51025122 C51.09124838 19.11808751 51.09507223 21.72588398 51.09887695 24.33374023 C51.10513975 26.19782132 51.11178638 28.06190116 51.11878967 29.92597961 C51.13621552 35.00041088 51.14675556 40.07483272 51.1549952 45.14928651 C51.16014156 48.31761671 51.16621743 51.48594396 51.17250633 54.65427208 C51.19156206 64.56145513 51.20579289 74.4686307 51.2141183 84.37582856 C51.22389584 95.82291835 51.25022728 107.26981503 51.29061919 118.71683675 C51.3207475 127.55764807 51.33558402 136.39840394 51.33889931 145.23926562 C51.34125339 150.52289206 51.35026026 155.8063123 51.37536049 161.0898838 C51.39858902 166.0598244 51.4028955 171.02942225 51.39259911 175.999403 C51.39210238 177.82434349 51.39846307 179.64930056 51.41215515 181.47418976 C51.42979516 183.96443333 51.42280758 186.45343631 51.40962219 188.94367981 C51.42059144 189.66703154 51.43156068 190.39038327 51.44286233 191.13565475 C51.39711401 194.71072713 50.98315622 196.64849482 49.04273415 199.69250584 C46.45345387 202.19786872 45.33033833 202.37587797 41.77368164 202.39160156 C40.74904312 202.40736237 39.7244046 202.42312317 38.66871643 202.43936157 C37.56761032 202.42924042 36.46650421 202.41911926 35.33203125 202.40869141 C33.62701698 202.41586685 33.62701698 202.41586685 31.88755798 202.42318726 C29.48435075 202.42658885 27.08109741 202.41736849 24.67797852 202.39648438 C21.00106401 202.36975025 17.3272094 202.39621392 13.65039062 202.42822266 C11.31509743 202.42491812 8.97980614 202.418511 6.64453125 202.40869141 C5.54544937 202.41881256 4.44636749 202.42893372 3.3139801 202.43936157 C1.77229408 202.41572037 1.77229408 202.41572037 0.19946289 202.39160156 C-0.70114365 202.3876236 -1.60175018 202.38364563 -2.52964783 202.37954712 C-6.26256645 201.44954153 -7.67689869 199.71659685 -10.078125 196.74462891 C-10.57155124 193.94832678 -10.75622331 191.76041853 -10.71304321 188.97059631 C-10.72084317 188.19468264 -10.72864312 187.41876896 -10.73667943 186.61934274 C-10.756603 184.0226805 -10.74083433 181.42748332 -10.72509766 178.83081055 C-10.7318737 176.96790207 -10.74077676 175.10500029 -10.75164795 173.24211121 C-10.77445099 168.18414758 -10.76560032 163.12669364 -10.74975252 158.06872106 C-10.73709691 152.77573472 -10.74883287 147.48279212 -10.75668335 142.18980408 C-10.76578168 133.29987756 -10.75378796 124.41015867 -10.72998047 115.52026367 C-10.70277728 105.24374778 -10.71157686 94.967728 -10.7391125 84.69122416 C-10.76180725 75.86812948 -10.76500157 67.04518411 -10.75191915 58.22206968 C-10.74412561 52.95243318 -10.7430803 47.68302979 -10.75960159 42.41340828 C-10.77405204 37.45806364 -10.76401391 32.50335801 -10.73513031 27.54808235 C-10.72852224 25.73003195 -10.73041242 23.91192772 -10.74144363 22.09389877 C-10.75512247 19.61042317 -10.73795721 17.12899076 -10.71304321 14.64564514 C-10.72419682 13.92725261 -10.73535043 13.20886008 -10.74684203 12.46869808 C-10.61560225 5.71777101 -7.33037107 -0.0107044 0 0 Z " fill="#5BBC5B" transform="translate(562.078125,374.25537109375)"/>
<path d="M0 0 C0.98452148 -0.01245758 1.96904297 -0.02491516 2.98339844 -0.03775024 C4.56169434 -0.010121 4.56169434 -0.010121 6.171875 0.01806641 C7.80817871 0.01657089 7.80817871 0.01657089 9.47753906 0.01504517 C11.78067319 0.0197198 14.08381815 0.03913731 16.38671875 0.07226562 C19.90978454 0.11946692 23.4298232 0.11338385 26.953125 0.10009766 C29.19272636 0.11125161 31.43231498 0.12547164 33.671875 0.14306641 C35.2501709 0.14033218 35.2501709 0.14033218 36.86035156 0.13754272 C41.3409924 0.22430472 44.1474157 0.28840591 48.0625 2.59472656 C51.00685965 5.9991424 51.04914672 8.82486289 51.06231689 13.15890503 C51.06802704 14.28329987 51.07373718 15.4076947 51.07962036 16.56616211 C51.08073822 17.80052002 51.08185608 19.03487793 51.08300781 20.30664062 C51.09045517 22.25571823 51.09045517 22.25571823 51.09805298 24.24417114 C51.11116934 27.81033068 51.11762032 31.37647139 51.12206364 34.94265127 C51.12499531 37.17075574 51.12910028 39.39885506 51.13356781 41.62695694 C51.14724011 48.59855878 51.15690834 55.57014887 51.1607697 62.54176319 C51.16525135 70.58894914 51.18280518 78.63596531 51.2117703 86.68309963 C51.23338472 92.90399711 51.24347383 99.12484681 51.24481082 105.34578145 C51.24585893 109.06106094 51.25176804 112.77618078 51.26963043 116.49142075 C51.28916811 120.63566143 51.28482313 124.7795465 51.27832031 128.92382812 C51.29214249 130.7692923 51.29214249 130.7692923 51.3062439 132.65203857 C51.30067474 133.78207306 51.29510559 134.91210754 51.28936768 136.0763855 C51.29083424 137.05604216 51.2923008 138.03569881 51.2938118 139.04504204 C50.852352 142.24923987 49.79491987 144.13065676 47.921875 146.74462891 C45.04330354 148.71034807 42.69116138 149.00267338 39.24853516 149.03515625 C38.32722809 149.04791595 37.40592102 149.06067566 36.45669556 149.07382202 C35.4680954 149.07604767 34.47949524 149.07827332 33.4609375 149.08056641 C32.43761322 149.08722321 31.41428894 149.09388 30.35995483 149.10073853 C28.19636837 149.11085789 26.03275073 149.11555577 23.86914062 149.11523438 C20.56588059 149.11960377 17.26396087 149.1559215 13.9609375 149.19384766 C11.85677539 149.19971676 9.75260695 149.20368552 7.6484375 149.20556641 C6.6638858 149.21993744 5.67933411 149.23430847 4.66494751 149.24911499 C-1.21942933 149.2100813 -4.59786351 148.67068781 -9.078125 144.74462891 C-10.37158204 142.15771483 -10.21576745 140.27937746 -10.23202515 137.38140869 C-10.24062561 136.24300537 -10.24922607 135.10460205 -10.25808716 133.93170166 C-10.26234711 132.67661804 -10.26660706 131.42153442 -10.27099609 130.12841797 C-10.27917358 128.81127808 -10.28735107 127.49413818 -10.29577637 126.13708496 C-10.32200362 121.76149545 -10.33730582 117.38589634 -10.3515625 113.01025391 C-10.35692211 111.50408675 -10.36229962 109.99791965 -10.36769485 108.49175262 C-10.38932563 102.2260585 -10.40806193 95.96036695 -10.41931725 89.69464493 C-10.43555334 80.71512258 -10.46872004 71.73603318 -10.52571809 62.75667405 C-10.56442705 56.44321634 -10.5839511 50.12987437 -10.58923781 43.81630111 C-10.59289036 40.04551209 -10.60490007 36.27518476 -10.63734055 32.50452423 C-10.66743827 28.95523095 -10.67372765 25.40667825 -10.66195679 21.85728455 C-10.6616312 19.93800929 -10.68608646 18.01877963 -10.71133423 16.09967041 C-10.64317805 6.67992581 -10.64317805 6.67992581 -7.85903931 2.9703064 C-4.88855774 0.59291061 -3.73713067 -0.00545726 0 0 Z " fill="#F4B408" transform="translate(487.078125,428.25537109375)"/>
<path d="M0 0 C0.94470657 -0.00960754 1.88941315 -0.01921509 2.86274719 -0.02911377 C4.39864754 -0.03548859 4.39864754 -0.03548859 5.96557617 -0.04199219 C7.54165901 -0.0505423 7.54165901 -0.0505423 9.14958191 -0.05926514 C11.37640371 -0.06872371 13.60323956 -0.07525251 15.83007812 -0.07910156 C19.23421744 -0.08879789 22.63775077 -0.11980989 26.04174805 -0.15136719 C28.20385383 -0.15789805 30.36596394 -0.16314819 32.52807617 -0.16699219 C34.05486748 -0.18551239 34.05486748 -0.18551239 35.61250305 -0.20440674 C44.55680208 -0.17627452 44.55680208 -0.17627452 48.44604492 3.16113281 C50.97559416 6.95545667 50.7487637 10.01057759 50.75244141 14.40869141 C50.76076492 15.24965866 50.76908844 16.09062592 50.77766418 16.95707703 C50.80178912 19.74128835 50.81053927 22.52526551 50.81713867 25.30957031 C50.82610303 27.24386669 50.83522484 29.17816235 50.84449768 31.11245728 C50.86099696 35.16938971 50.86868951 39.22623953 50.87158203 43.28320312 C50.87696713 48.48104682 50.91464844 53.67811384 50.96032619 58.87573814 C50.99007261 62.87176344 50.99730506 66.86760117 50.99830818 70.86372757 C51.00251521 72.77989891 51.01496882 74.69607058 51.03582573 76.61213303 C51.06269062 79.29359752 51.05792984 81.97325468 51.04541016 84.65478516 C51.06024445 85.44560989 51.07507874 86.23643463 51.09036255 87.05122375 C51.03802676 90.98871561 50.59779883 92.95613814 48.23170471 96.15234375 C45.22116163 98.32330017 43.92715438 98.79159801 40.27612305 98.80810547 C39.27158081 98.82386627 38.26703857 98.83962708 37.23205566 98.85586548 C36.15798462 98.84574432 35.08391357 98.83562317 33.97729492 98.82519531 C32.30769714 98.83237076 32.30769714 98.83237076 30.60437012 98.83969116 C28.25421737 98.84308924 25.9040173 98.83389345 23.55395508 98.81298828 C19.9583183 98.78622417 16.36580344 98.81274215 12.77026367 98.84472656 C10.48510054 98.84142245 8.19993934 98.8350162 5.91479492 98.82519531 C4.84072388 98.83531647 3.76665283 98.84543762 2.66003418 98.85586548 C1.15322083 98.83222427 1.15322083 98.83222427 -0.3840332 98.80810547 C-1.26385864 98.8041275 -2.14368408 98.80014954 -3.0501709 98.79605103 C-6.81723975 97.84078474 -8.25374656 96.26349805 -10.55395508 93.16113281 C-11.04351788 90.14477242 -11.22974559 87.69700695 -11.18505859 84.68652344 C-11.1922139 83.84526413 -11.1993692 83.00400482 -11.20674133 82.13725281 C-11.22361544 79.36340616 -11.20423393 76.59117868 -11.18286133 73.81738281 C-11.18369015 71.88594428 -11.18615002 69.95450582 -11.19017029 68.02307129 C-11.19302741 63.97789239 -11.17833545 59.93326745 -11.15087891 55.88818359 C-11.11679635 50.70610909 -11.12281519 45.52502506 -11.14154148 40.34290314 C-11.15211607 36.3554053 -11.14316945 32.36813747 -11.12815666 28.38066101 C-11.12297777 26.47011498 -11.1234531 24.55954491 -11.12970161 22.64900208 C-11.13515937 19.97739109 -11.1147614 17.30719221 -11.08740234 14.63574219 C-11.09392822 13.84805954 -11.1004541 13.06037689 -11.10717773 12.24882507 C-11.02057299 7.26889789 -10.13869311 4.64505916 -6.55395508 1.16113281 C-4.16618871 -0.03275037 -2.66553225 0.021844 0 0 Z " fill="#FC6027" transform="translate(410.553955078125,479.8388671875)"/>
<path d="M0 0 C1.8125 0.1875 1.8125 0.1875 4 1 C6.66346712 4.62720221 7.37579848 7.20557095 7.38095093 11.66824341 C7.3894104 12.79827789 7.39786987 13.92831238 7.40658569 15.09259033 C7.400513 16.32289978 7.39444031 17.55320923 7.38818359 18.82080078 C7.39344055 20.12369049 7.39869751 21.4265802 7.40411377 22.76895142 C7.41776921 26.33494422 7.41249691 29.90067612 7.40297651 33.46667337 C7.39537388 37.19954022 7.4024269 40.93238495 7.40713501 44.66525269 C7.41258946 50.93133552 7.40540774 57.19731219 7.39111328 63.46337891 C7.37477305 70.70996089 7.38008636 77.95628983 7.3965925 85.20286572 C7.41019929 91.42548927 7.41213144 97.64803659 7.40427649 103.8706702 C7.39959733 107.58694984 7.39898199 111.30311046 7.40888596 115.01938248 C7.41914839 119.15907073 7.40493156 123.29832128 7.38818359 127.43798828 C7.39425629 128.67234619 7.40032898 129.9067041 7.40658569 131.1784668 C7.39812622 132.30286163 7.38966675 133.42725647 7.38095093 134.58572388 C7.37981985 135.56462648 7.37868877 136.54352909 7.37752342 137.55209541 C7 140 7 140 4 143 C4.33 97.13 4.66 51.26 5 4 C4.01 4 3.02 4 2 4 C2 3.01 2 2.02 2 1 C1.34 0.67 0.68 0.34 0 0 Z " fill="#E9A304" transform="translate(531,430)"/>
<path d="M0 0 C1.30839844 -0.00128906 2.61679687 -0.00257813 3.96484375 -0.00390625 C4.63660645 -0.00181152 5.30836914 0.0002832 6.00048828 0.00244141 C8.0563895 0.00781695 10.11207405 0.00246482 12.16796875 -0.00390625 C13.47378906 -0.00261719 14.77960937 -0.00132812 16.125 0 C17.31109863 0.00112793 18.49719727 0.00225586 19.71923828 0.00341797 C22.58265493 0.11882564 25.14782041 0.47351851 27.9296875 1.1328125 C24.24139008 3.4761642 21.05223558 3.37707567 16.75 3.36328125 C16.05961639 3.36282303 15.36923279 3.36236481 14.65792847 3.3618927 C13.20048296 3.3588786 11.74304045 3.35101751 10.28564453 3.33862305 C8.06921808 3.32043176 5.85321192 3.31811315 3.63671875 3.31835938 C-2.36230894 3.29758847 -8.15653845 3.27489659 -14.0703125 2.1328125 C-14.0703125 1.8028125 -14.0703125 1.4728125 -14.0703125 1.1328125 C-9.33519354 0.37147372 -4.79415801 0.00455039 0 0 Z " fill="#33393D" transform="translate(505.0703125,258.8671875)"/>
<path d="M0 0 C0.66 0.33 1.32 0.66 2 1 C1.67 1.99 1.34 2.98 1 4 C-0.8125 4.5625 -0.8125 4.5625 -3 5 C-4.3479743 5.63654342 -5.68596724 6.29605388 -7 7 C-4.78071806 4.09197539 -3.07030857 2.04687238 0 0 Z " fill="#171C1F" transform="translate(391,297)"/>

</svg>