<svg xmlns="http://www.w3.org/2000/svg" width="1024" height="1024">
  <path fill="#2B3339" d="M613 284c1.132.59 2.264 1.18 3.43 1.79 15.883 8.62 29.99 19.864 42.837 32.512a371.158 371.158 0 0 0 5.163 4.94C677.51 335.724 686.956 350.437 696 366l1.145 1.953c25.055 43.151 30.711 96.475 18.323 144.319C706.94 543.726 692.454 571.292 674 598l-1.276 1.853c-9.871 14.269-20.606 27.905-31.997 40.987-2.46 2.83-4.82 5.732-7.164 8.66-4.601 5.673-9.572 10.966-14.567 16.29a237.602 237.602 0 0 0-6.558 7.273c-4.457 5.155-9.112 10.128-13.75 15.12a3386.828 3386.828 0 0 0-3.455 3.725c-12.625 13.633-12.625 13.633-19.073 19.87-1.853 1.906-3.584 3.852-5.318 5.865-5.77 6.61-11.958 12.812-18.127 19.047a776.274 776.274 0 0 0-4.517 4.62c-21.945 22.622-21.945 22.622-36.948 23.503-9.635-.12-17.056-5.054-23.692-11.663l-2.163-2.232-2.329-2.342c-2.43-2.452-4.841-4.92-7.253-7.389a5122.306 5122.306 0 0 0-4.89-4.931c-6.3-6.372-12.564-12.718-18.403-19.52-2.225-2.54-4.603-4.876-7.02-7.236a182.714 182.714 0 0 1-10.824-11.605c-1.816-2.053-3.724-3.972-5.676-5.895-3.216-3.173-6.22-6.462-9.168-9.883-4.86-5.616-9.879-11.091-14.927-16.536a303.921 303.921 0 0 1-13.721-15.929c-2.178-2.645-4.437-5.184-6.747-7.715-4.373-4.816-8.432-9.812-12.437-14.937l-3.191-4.035A590.813 590.813 0 0 1 346 592l-1.327-1.908C325.806 562.927 312.316 532.558 306 500l-.529-2.37c-2.1-10.502-1.91-21.152-1.909-31.817l-.003-3.108c.024-15.83 1.051-30.418 5.441-45.705.463-1.755.926-3.51 1.387-5.266 12.86-47.15 45.859-91.82 86.613-118.734l1.712-1.131C462.799 250.192 545.942 247.959 613 284Zm-177 30-2.113 1.027C418.412 322.652 405.395 332.05 393 344l-2.324 2.133C365.189 370.2 346.829 407.518 342 442l-.512 3.231c-7.195 55.617 15.846 102.802 48.78 145.702a537.888 537.888 0 0 0 17.22 21.122c2.387 2.799 4.706 5.642 7.012 8.508 4.127 5.073 8.501 9.874 12.945 14.667A286.233 286.233 0 0 1 433.5 642c3.793 4.377 7.727 8.622 11.656 12.875a349.76 349.76 0 0 1 6.25 7.027c3.455 3.961 6.998 7.828 10.594 11.66l1.938 2.069c5.178 5.497 10.48 10.86 15.875 16.145 2.961 2.918 5.794 5.881 8.503 9.037 4.295 4.974 8.954 9.565 13.622 14.187l2.65 2.637c2.135 2.123 4.272 4.244 6.412 6.363 8.711-3.99 15.41-12.254 22.063-18.938l2.603-2.591c4.41-4.417 8.652-8.904 12.719-13.637 2.569-2.917 5.336-5.619 8.115-8.334 4.166-4.113 8.169-8.277 11.96-12.742 1.61-1.837 3.298-3.547 5.04-5.258 3.04-2.993 5.852-6.126 8.637-9.355 1.986-2.286 4.015-4.529 6.05-6.77 4.108-4.552 8.11-9.185 12.087-13.85a886.811 886.811 0 0 1 7.996-9.263c6.676-7.618 13.116-15.358 19.288-23.39 1.546-2.007 3.105-4.004 4.665-6 7.017-9.03 13.662-18.208 19.777-27.872l1.17-1.85c25.481-40.613 37.824-87.698 27.13-135.264-7.426-29.77-21.531-56.223-42.359-78.753C636 348 636 348 633.625 344.938c-26.12-29.23-70.53-45.321-108.862-47.789C493.714 295.47 464.037 300.308 436 314Z"/>
  <path fill="#5BBC5B" d="m562.078 374.255 2.984-.037 3.188.055 3.306-.003c2.303.005 4.606.025 6.909.058 3.523.047 7.043.04 10.566.027 2.24.012 4.48.026 6.719.043l3.188-.005c7.297.141 7.297.141 11.203 2.52 3.289 3.692 3.007 6.775 3.006 11.507l.011 2.346c.011 2.607.015 5.215.019 7.823l.02 5.592c.017 5.075.028 10.15.036 15.224l.018 9.505c.019 9.907.033 19.814.041 29.721.01 11.447.036 22.894.077 34.341.03 8.841.045 17.682.048 26.523.002 5.283.011 10.567.036 15.85.024 4.97.028 9.94.018 14.91 0 1.825.006 3.65.02 5.475.017 2.49.01 4.979-.003 7.47l.033 2.191c-.046 3.575-.46 5.513-2.4 8.557-2.59 2.505-3.713 2.683-7.27 2.699l-3.104.048-3.337-.03-3.444.014c-2.404.003-4.807-.006-7.21-.027-3.677-.027-7.35 0-11.027.032-2.336-.004-4.671-.01-7.006-.02l-3.33.03-3.115-.047-2.73-.012c-3.732-.93-5.147-2.663-7.548-5.635-.493-2.796-.678-4.984-.635-7.774l-.024-2.351c-.02-2.597-.004-5.192.012-7.789a2542.35 2542.35 0 0 0-.027-5.589c-.022-5.057-.013-10.115.002-15.173.013-5.293.001-10.586-.007-15.879-.009-8.89.003-17.78.027-26.67.027-10.276.019-20.552-.009-30.828-.023-8.823-.026-17.646-.013-26.47.008-5.27.009-10.539-.007-15.808-.015-4.956-.005-9.91.024-14.866a562.16 562.16 0 0 0-.006-5.454c-.014-2.483.003-4.965.028-7.448l-.034-2.177c.132-6.75 3.417-12.48 10.747-12.469Z"/>
  <path fill="#F4B408" d="m487.078 428.255 2.984-.037 3.188.055 3.306-.003c2.303.005 4.606.025 6.909.058 3.523.047 7.043.04 10.566.027 2.24.012 4.48.026 6.719.043l3.188-.005c4.481.087 7.288.15 11.203 2.457 2.944 3.405 2.986 6.23 3 10.564.005 1.125.01 2.25.017 3.408l.003 3.74.015 3.938c.013 3.566.02 7.132.024 10.698l.012 6.684c.013 6.972.023 13.944.027 20.915.004 8.047.022 16.094.05 24.141.023 6.221.033 12.442.034 18.663.001 3.715.007 7.43.025 11.146.02 4.144.015 8.288.008 12.432l.028 3.728c-.005 1.13-.01 2.26-.017 3.425l.005 2.968c-.442 3.205-1.499 5.086-3.372 7.7-2.879 1.966-5.23 2.258-8.673 2.29l-2.792.04-2.996.006-3.1.02c-2.165.01-4.328.015-6.492.015-3.303.004-6.605.04-9.908.078-2.104.006-4.208.01-6.312.012l-2.984.043c-5.884-.039-9.263-.578-13.743-4.504-1.293-2.587-1.138-4.465-1.154-7.363l-.026-3.45-.013-3.803-.025-3.992c-.026-4.375-.041-8.75-.055-13.126l-.017-4.519c-.021-6.266-.04-12.531-.051-18.797-.016-8.98-.05-17.959-.107-26.938-.038-6.313-.058-12.627-.063-18.94-.004-3.771-.016-7.541-.048-11.312-.03-3.55-.037-7.098-.025-10.647 0-1.92-.024-3.839-.05-5.758.069-9.42.069-9.42 2.853-13.13 2.97-2.377 4.122-2.975 7.86-2.97Z"/>
  <path fill="#FC6027" d="m410.554 479.839 2.863-.03 3.103-.012 3.184-.017c2.226-.01 4.453-.016 6.68-.02 3.404-.01 6.808-.04 10.212-.073l6.486-.015 3.084-.038c8.945.029 8.945.029 12.834 3.366 2.53 3.794 2.303 6.85 2.306 11.248l.026 2.548c.024 2.784.032 5.568.04 8.352l.026 5.803c.017 4.057.025 8.114.028 12.171.005 5.198.043 10.395.088 15.593.03 3.996.037 7.991.038 11.988.004 1.916.017 3.832.038 5.748.027 2.681.022 5.361.01 8.043l.044 2.396c-.052 3.938-.492 5.905-2.858 9.101-3.01 2.171-4.305 2.64-7.956 2.656l-3.044.048-3.255-.03-3.373.014c-2.35.003-4.7-.006-7.05-.027-3.596-.027-7.188 0-10.784.032-2.285-.004-4.57-.01-6.855-.02l-3.255.03-3.044-.047-2.666-.012c-3.767-.955-5.204-2.533-7.504-5.635-.49-3.016-.676-5.464-.631-8.475l-.022-2.549a603.29 603.29 0 0 1 .024-8.32c0-1.931-.003-3.863-.007-5.794-.003-4.045.012-8.09.04-12.135.033-5.182.027-10.363.008-15.545-.01-3.988-.001-7.975.014-11.962.005-1.911.005-3.822-.002-5.732-.005-2.672.015-5.342.043-8.013l-.02-2.387c.086-4.98.968-7.604 4.553-11.088 2.388-1.194 3.888-1.14 6.554-1.161Z"/>
  <path fill="#E9A304" d="M531 430c1.813.188 1.813.188 4 1 2.663 3.627 3.376 6.206 3.381 10.668l.026 3.425-.019 3.728.016 3.948c.014 3.566.008 7.132-.001 10.698-.008 3.733 0 7.465.004 11.198.006 6.266-.002 12.532-.016 18.798-.016 7.247-.01 14.493.006 21.74.013 6.222.015 12.445.007 18.668-.004 3.716-.005 7.432.005 11.148.01 4.14-.004 8.28-.02 12.419l.018 3.74-.026 3.408-.003 2.966C538 570 538 570 535 573l1-139h-3v-3l-2-1Z"/>
  <path fill="#33393D" d="m505.07 258.867 3.965-.004 2.036.007c2.056.005 4.111 0 6.167-.007l3.957.004 3.595.004A41.73 41.73 0 0 1 533 260c-3.688 2.343-6.877 2.244-11.18 2.23h-2.092a796.47 796.47 0 0 1-4.372-.024 799.25 799.25 0 0 0-6.649-.02c-5.999-.021-11.793-.044-17.707-1.186v-1a87.641 87.641 0 0 1 14.07-1.133Z"/>
  <path fill="#171C1F" d="m391 297 2 1-1 3c-1.813.563-1.813.563-4 1a88.354 88.354 0 0 0-4 2c2.22-2.908 3.93-4.953 7-7Z"/>
</svg>
